<svg xmlns="http://www.w3.org/2000/svg" width="872" height="542" viewBox="0 0 872.0 542.0" font-family="'Cascadia Mono', Consolas, 'DejaVu Sans Mono', Menlo, monospace" font-size="14">
<rect width="100%" height="100%" rx="10" fill="#F5F1E8"/>
<text x="16.0 24.4 32.8 41.2 49.6 58.0 66.4 74.8" y="29.0" xml:space="preserve" fill="#8C4907" font-weight="700"> ZENITH </text>
<text x="100.0 108.4 116.8 125.2 133.6 142.0 150.4 158.8 167.2" y="29.0" xml:space="preserve" fill="#8C4907" font-weight="700" text-decoration="underline">1 Session</text>
<text x="192.4 200.8 209.2 217.6 226.0 234.4" y="29.0" xml:space="preserve" fill="#555355">2 APIs</text>
<text x="259.6 268.0 276.4 284.8 293.2" y="29.0" xml:space="preserve" fill="#555355">3 Log</text>
<text x="318.4 326.8 335.2 343.6 352.0 360.4 368.8 377.2 385.6" y="29.0" xml:space="preserve" fill="#555355">4 History</text>
<text x="394.0 402.4 410.8 419.2 427.6 436.0 444.4 452.8 461.2 469.6 478.0 486.4 494.8 503.2 511.6 520.0 528.4 536.8 545.2 553.6 562.0 570.4 578.8 587.2 595.6 604.0 612.4 620.8 629.2 637.6 646.0 654.4 662.8 671.2 679.6 688.0 696.4 704.8 713.2 721.6 730.0 738.4 746.8 755.2 763.6 772.0 780.4 788.8" y="29.0" xml:space="preserve" fill="#868482">                ·     ·                         </text>
<text x="797.2" y="29.0" xml:space="preserve" fill="#8C4907" font-weight="700">?</text>
<text x="805.6 814.0 822.4 830.8 839.2 847.6" y="29.0" xml:space="preserve" fill="#555355"> keys </text>
<text x="16.0 24.4 32.8 41.2 49.6 58.0 66.4 74.8 83.2 91.6 100.0 108.4 116.8 125.2" y="46.0" xml:space="preserve" fill="#8C4907"> › /ping hello</text>
<rect x="41.2" y="50.0" width="33.6" height="17.0" fill="#8C4907"/>
<text x="41.2 49.6 58.0 66.4" y="63.0" xml:space="preserve" fill="#F5F1E8" font-weight="700"> ok </text>
<text x="91.6 100.0 108.4 116.8" y="63.0" xml:space="preserve" fill="#8C4907" font-weight="700">pong</text>
<text x="125.2 133.6 142.0 150.4 158.8 167.2 175.6 184.0 192.4 200.8 209.2" y="63.0" xml:space="preserve" fill="#17161C"> in 0.64 ms</text>
<text x="217.6 226.0 234.4 242.8 251.2 259.6 268.0 276.4 284.8 293.2 301.6 310.0 318.4 326.8 335.2 343.6 352.0 360.4 368.8 377.2 385.6 394.0 402.4 410.8 419.2 427.6 436.0" y="63.0" xml:space="preserve" fill="#555355"> · 0.08 ms in SOLAR · echo </text>
<text x="444.4 452.8 461.2 469.6 478.0" y="63.0" xml:space="preserve" fill="#17161C">hello</text>
<text x="486.4 494.8 503.2 511.6 520.0 528.4 536.8 545.2 553.6 562.0 570.4 578.8 587.2 595.6 604.0 612.4 620.8 629.2 637.6 646.0 654.4 662.8 671.2 679.6" y="63.0" xml:space="preserve" fill="#555355"> · solar.ping 1.0.0 · #4</text>
<text x="16.0 24.4 32.8 41.2 49.6 58.0 66.4 74.8 83.2 91.6 100.0 108.4 116.8 125.2 133.6 142.0 150.4 158.8 167.2 175.6" y="80.0" xml:space="preserve" fill="#8C4907"> › /call system.info</text>
<rect x="41.2" y="84.0" width="33.6" height="17.0" fill="#8C4907"/>
<text x="41.2 49.6 58.0 66.4" y="97.0" xml:space="preserve" fill="#F5F1E8" font-weight="700"> ok </text>
<text x="91.6 100.0 108.4 116.8 125.2 133.6 142.0 150.4 158.8 167.2 175.6" y="97.0" xml:space="preserve" fill="#8C4907">system.info</text>
<text x="184.0 192.4 200.8 209.2 217.6 226.0" y="97.0" xml:space="preserve" fill="#555355"> 1.2.0</text>
<text x="234.4 242.8 251.2 259.6 268.0 276.4 284.8 293.2 301.6 310.0" y="97.0" xml:space="preserve" fill="#17161C"> · 0.63 ms</text>
<text x="318.4 326.8 335.2 343.6 352.0 360.4 368.8 377.2 385.6 394.0 402.4 410.8 419.2 427.6 436.0 444.4 452.8 461.2 469.6 478.0 486.4 494.8 503.2 511.6" y="97.0" xml:space="preserve" fill="#555355"> · 0.28 ms in SOLAR · #5</text>
<text x="41.2 49.6 58.0 66.4 74.8 83.2 91.6 100.0 108.4 116.8 125.2 133.6 142.0 150.4 158.8 167.2 175.6 184.0 192.4" y="114.0" xml:space="preserve" fill="#8C4907">abandoned_workers  </text>
<text x="217.6" y="114.0" xml:space="preserve" fill="#17161C" font-weight="700">0</text>
<text x="41.2 49.6 58.0 66.4 74.8 83.2 91.6 100.0 108.4 116.8 125.2 133.6 142.0 150.4 158.8 167.2 175.6 184.0 192.4" y="131.0" xml:space="preserve" fill="#8C4907">arch               </text>
<text x="200.8 209.2 217.6 226.0 234.4 242.8 251.2 259.6 268.0 276.4 284.8 293.2 301.6 310.0 318.4 326.8 335.2 343.6 352.0 360.4 368.8 377.2 385.6 394.0 402.4 410.8 419.2 427.6 436.0 444.4 452.8 461.2 469.6 478.0 486.4 494.8 503.2 511.6 520.0 528.4 536.8 545.2 553.6 562.0 570.4 578.8 587.2 595.6 604.0 612.4 620.8 629.2 637.6 646.0 654.4 662.8 671.2 679.6 688.0 696.4 704.8 713.2 721.6 730.0 738.4 746.8 755.2 763.6 772.0 780.4 788.8 797.2 805.6 814.0 822.4 830.8 839.2 847.6" y="131.0" xml:space="preserve" fill="#17161C">  x86_64                                                                      </text>
<text x="41.2 49.6 58.0 66.4 74.8 83.2 91.6 100.0 108.4 116.8 125.2 133.6 142.0 150.4 158.8 167.2 175.6 184.0 192.4" y="148.0" xml:space="preserve" fill="#8C4907">cpu_count          </text>
<text x="217.6 226.0" y="148.0" xml:space="preserve" fill="#17161C" font-weight="700">16</text>
<text x="41.2 49.6 58.0 66.4 74.8 83.2 91.6 100.0 108.4 116.8 125.2 133.6 142.0 150.4 158.8 167.2 175.6 184.0 192.4" y="165.0" xml:space="preserve" fill="#8C4907">current_dir        </text>
<text x="200.8 209.2 217.6 226.0 234.4 242.8 251.2 259.6 268.0 276.4 284.8 293.2 301.6 310.0 318.4 326.8 335.2 343.6 352.0 360.4 368.8 377.2 385.6 394.0 402.4 410.8 419.2 427.6 436.0 444.4 452.8 461.2 469.6 478.0 486.4 494.8 503.2 511.6 520.0 528.4 536.8 545.2 553.6 562.0 570.4 578.8 587.2 595.6 604.0 612.4 620.8 629.2 637.6 646.0 654.4 662.8 671.2 679.6 688.0 696.4 704.8 713.2 721.6 730.0 738.4 746.8 755.2 763.6 772.0 780.4 788.8 797.2 805.6 814.0 822.4 830.8 839.2 847.6" y="165.0" xml:space="preserve" fill="#17161C">  C:\Users\lab\Documents\GitHub\zenith\crates\zenith                          </text>
<text x="41.2 49.6 58.0 66.4 74.8 83.2 91.6 100.0 108.4 116.8 125.2 133.6 142.0 150.4 158.8 167.2 175.6 184.0 192.4" y="182.0" xml:space="preserve" fill="#8C4907">executable         </text>
<text x="200.8 209.2 217.6 226.0 234.4 242.8 251.2 259.6 268.0 276.4 284.8 293.2 301.6 310.0 318.4 326.8 335.2 343.6 352.0 360.4 368.8 377.2 385.6 394.0 402.4 410.8 419.2 427.6 436.0 444.4 452.8 461.2 469.6 478.0 486.4 494.8 503.2 511.6 520.0 528.4 536.8 545.2 553.6 562.0 570.4 578.8 587.2 595.6 604.0 612.4 620.8 629.2 637.6 646.0 654.4 662.8 671.2 679.6 688.0 696.4 704.8 713.2 721.6 730.0 738.4 746.8 755.2 763.6 772.0 780.4 788.8 797.2 805.6 814.0 822.4 830.8 839.2 847.6" y="182.0" xml:space="preserve" fill="#17161C">  C:\Users\lab\AppData\Local\Temp\zenith\solar\534933ab81d6ae16\solar.exe     </text>
<text x="41.2 49.6 58.0 66.4 74.8 83.2 91.6 100.0 108.4 116.8 125.2 133.6 142.0 150.4 158.8 167.2 175.6 184.0 192.4" y="199.0" xml:space="preserve" fill="#8C4907">os                 </text>
<text x="200.8 209.2 217.6 226.0 234.4 242.8 251.2 259.6 268.0 276.4 284.8 293.2 301.6 310.0 318.4 326.8 335.2 343.6 352.0 360.4 368.8 377.2 385.6 394.0 402.4 410.8 419.2 427.6 436.0 444.4 452.8 461.2 469.6 478.0 486.4 494.8 503.2 511.6 520.0 528.4 536.8 545.2 553.6 562.0 570.4 578.8 587.2 595.6 604.0 612.4 620.8 629.2 637.6 646.0 654.4 662.8 671.2 679.6 688.0 696.4 704.8 713.2 721.6 730.0 738.4 746.8 755.2 763.6 772.0 780.4 788.8 797.2 805.6 814.0 822.4 830.8 839.2 847.6" y="199.0" xml:space="preserve" fill="#17161C">  windows                                                                     </text>
<text x="41.2 49.6 58.0 66.4 74.8 83.2 91.6 100.0 108.4 116.8 125.2 133.6 142.0 150.4 158.8 167.2 175.6 184.0 192.4" y="216.0" xml:space="preserve" fill="#8C4907">os_build           </text>
<text x="200.8 209.2 217.6 226.0 234.4 242.8 251.2 259.6 268.0 276.4 284.8 293.2 301.6 310.0 318.4 326.8 335.2 343.6 352.0 360.4 368.8 377.2 385.6 394.0 402.4 410.8 419.2 427.6 436.0 444.4 452.8 461.2 469.6 478.0 486.4 494.8 503.2 511.6 520.0 528.4 536.8 545.2 553.6 562.0 570.4 578.8 587.2 595.6 604.0 612.4 620.8 629.2 637.6 646.0 654.4 662.8 671.2 679.6 688.0 696.4 704.8 713.2 721.6 730.0 738.4 746.8 755.2 763.6 772.0 780.4 788.8 797.2 805.6 814.0 822.4 830.8 839.2 847.6" y="216.0" xml:space="preserve" fill="#17161C">  &quot;26200&quot;                                                                     </text>
<text x="41.2 49.6 58.0 66.4 74.8 83.2 91.6 100.0 108.4 116.8 125.2 133.6 142.0 150.4 158.8 167.2 175.6 184.0 192.4" y="233.0" xml:space="preserve" fill="#8C4907">os_family          </text>
<text x="200.8 209.2 217.6 226.0 234.4 242.8 251.2 259.6 268.0 276.4 284.8 293.2 301.6 310.0 318.4 326.8 335.2 343.6 352.0 360.4 368.8 377.2 385.6 394.0 402.4 410.8 419.2 427.6 436.0 444.4 452.8 461.2 469.6 478.0 486.4 494.8 503.2 511.6 520.0 528.4 536.8 545.2 553.6 562.0 570.4 578.8 587.2 595.6 604.0 612.4 620.8 629.2 637.6 646.0 654.4 662.8 671.2 679.6 688.0 696.4 704.8 713.2 721.6 730.0 738.4 746.8 755.2 763.6 772.0 780.4 788.8 797.2 805.6 814.0 822.4 830.8 839.2 847.6" y="233.0" xml:space="preserve" fill="#17161C">  windows                                                                     </text>
<text x="41.2 49.6 58.0 66.4 74.8 83.2 91.6 100.0 108.4 116.8 125.2 133.6 142.0 150.4 158.8 167.2 175.6 184.0 192.4" y="250.0" xml:space="preserve" fill="#8C4907">os_name            </text>
<text x="200.8 209.2 217.6 226.0 234.4 242.8 251.2 259.6 268.0 276.4 284.8 293.2 301.6 310.0 318.4 326.8 335.2 343.6 352.0 360.4 368.8 377.2 385.6 394.0 402.4 410.8 419.2 427.6 436.0 444.4 452.8 461.2 469.6 478.0 486.4 494.8 503.2 511.6 520.0 528.4 536.8 545.2 553.6 562.0 570.4 578.8 587.2 595.6 604.0 612.4 620.8 629.2 637.6 646.0 654.4 662.8 671.2 679.6 688.0 696.4 704.8 713.2 721.6 730.0 738.4 746.8 755.2 763.6 772.0 780.4 788.8 797.2 805.6 814.0 822.4 830.8 839.2 847.6" y="250.0" xml:space="preserve" fill="#17161C">  Windows                                                                     </text>
<text x="41.2 49.6 58.0 66.4 74.8 83.2 91.6 100.0 108.4 116.8 125.2 133.6 142.0 150.4 158.8 167.2 175.6 184.0 192.4" y="267.0" xml:space="preserve" fill="#8C4907">os_release         </text>
<text x="200.8 209.2 217.6 226.0 234.4 242.8 251.2 259.6 268.0 276.4 284.8 293.2 301.6 310.0 318.4 326.8 335.2 343.6 352.0 360.4 368.8 377.2 385.6 394.0 402.4 410.8 419.2 427.6 436.0 444.4 452.8 461.2 469.6 478.0 486.4 494.8 503.2 511.6 520.0 528.4 536.8 545.2 553.6 562.0 570.4 578.8 587.2 595.6 604.0 612.4 620.8 629.2 637.6 646.0 654.4 662.8 671.2 679.6 688.0 696.4 704.8 713.2 721.6 730.0 738.4 746.8 755.2 763.6 772.0 780.4 788.8 797.2 805.6 814.0 822.4 830.8 839.2 847.6" y="267.0" xml:space="preserve" fill="#17161C">  10.0.26200                                                                  </text>
<text x="41.2 49.6 58.0 66.4 74.8 83.2 91.6 100.0 108.4 116.8 125.2 133.6 142.0 150.4 158.8 167.2 175.6 184.0 192.4" y="284.0" xml:space="preserve" fill="#8C4907">path_list_separator</text>
<text x="200.8 209.2 217.6 226.0 234.4 242.8 251.2 259.6 268.0 276.4 284.8 293.2 301.6 310.0 318.4 326.8 335.2 343.6 352.0 360.4 368.8 377.2 385.6 394.0 402.4 410.8 419.2 427.6 436.0 444.4 452.8 461.2 469.6 478.0 486.4 494.8 503.2 511.6 520.0 528.4 536.8 545.2 553.6 562.0 570.4 578.8 587.2 595.6 604.0 612.4 620.8 629.2 637.6 646.0 654.4 662.8 671.2 679.6 688.0 696.4 704.8 713.2 721.6 730.0 738.4 746.8 755.2 763.6 772.0 780.4 788.8 797.2 805.6 814.0 822.4 830.8 839.2 847.6" y="284.0" xml:space="preserve" fill="#17161C">  ;                                                                           </text>
<text x="41.2 49.6 58.0 66.4 74.8 83.2 91.6 100.0 108.4 116.8 125.2 133.6 142.0 150.4 158.8 167.2 175.6 184.0 192.4" y="301.0" xml:space="preserve" fill="#8C4907">path_separator     </text>
<text x="200.8 209.2 217.6 226.0 234.4 242.8 251.2 259.6 268.0 276.4 284.8 293.2 301.6 310.0 318.4 326.8 335.2 343.6 352.0 360.4 368.8 377.2 385.6 394.0 402.4 410.8 419.2 427.6 436.0 444.4 452.8 461.2 469.6 478.0 486.4 494.8 503.2 511.6 520.0 528.4 536.8 545.2 553.6 562.0 570.4 578.8 587.2 595.6 604.0 612.4 620.8 629.2 637.6 646.0 654.4 662.8 671.2 679.6 688.0 696.4 704.8 713.2 721.6 730.0 738.4 746.8 755.2 763.6 772.0 780.4 788.8 797.2 805.6 814.0 822.4 830.8 839.2 847.6" y="301.0" xml:space="preserve" fill="#17161C">  \                                                                           </text>
<text x="41.2 49.6 58.0 66.4 74.8 83.2 91.6 100.0 108.4 116.8 125.2 133.6 142.0 150.4 158.8 167.2 175.6 184.0 192.4" y="318.0" xml:space="preserve" fill="#8C4907">pointer_width      </text>
<text x="217.6 226.0" y="318.0" xml:space="preserve" fill="#17161C" font-weight="700">64</text>
<text x="41.2 49.6 58.0 66.4 74.8 83.2 91.6 100.0 108.4 116.8 125.2 133.6 142.0 150.4 158.8 167.2 175.6 184.0 192.4" y="335.0" xml:space="preserve" fill="#8C4907">temp_dir           </text>
<text x="200.8 209.2 217.6 226.0 234.4 242.8 251.2 259.6 268.0 276.4 284.8 293.2 301.6 310.0 318.4 326.8 335.2 343.6 352.0 360.4 368.8 377.2 385.6 394.0 402.4 410.8 419.2 427.6 436.0 444.4 452.8 461.2 469.6 478.0 486.4 494.8 503.2 511.6 520.0 528.4 536.8 545.2 553.6 562.0 570.4 578.8 587.2 595.6 604.0 612.4 620.8 629.2 637.6 646.0 654.4 662.8 671.2 679.6 688.0 696.4 704.8 713.2 721.6 730.0 738.4 746.8 755.2 763.6 772.0 780.4 788.8 797.2 805.6 814.0 822.4 830.8 839.2 847.6" y="335.0" xml:space="preserve" fill="#17161C">  C:\Users\lab\AppData\Local\Temp\                                            </text>
<text x="16.0 24.4 32.8 41.2 49.6 58.0 66.4 74.8 83.2 91.6 100.0 108.4 116.8 125.2 133.6 142.0 150.4 158.8 167.2 175.6 184.0 192.4 200.8" y="352.0" xml:space="preserve" fill="#8C4907"> › /describe solar.pign</text>
<rect x="41.2" y="356.0" width="58.8" height="17.0" fill="#8C4907"/>
<text x="41.2 49.6 58.0 66.4 74.8 83.2 91.6" y="369.0" xml:space="preserve" fill="#F5F1E8" font-weight="700"> error </text>
<text x="116.8 125.2 133.6 142.0 150.4 158.8 167.2 175.6 184.0" y="369.0" xml:space="preserve" fill="#8C4907" font-weight="700">NOT_FOUND</text>
<text x="192.4 200.8 209.2" y="369.0" xml:space="preserve" fill="#555355"> · </text>
<text x="217.6 226.0 234.4 242.8 251.2 259.6 268.0 276.4 284.8 293.2 301.6 310.0 318.4" y="369.0" xml:space="preserve" fill="#8C4907" font-weight="700">API_NOT_FOUND</text>
<text x="326.8 335.2 343.6 352.0 360.4 368.8 377.2 385.6 394.0 402.4 410.8 419.2 427.6 436.0 444.4 452.8 461.2" y="369.0" xml:space="preserve" fill="#8C4907"> · solar.describe</text>
<text x="469.6 478.0 486.4 494.8 503.2 511.6 520.0 528.4 536.8 545.2" y="369.0" xml:space="preserve" fill="#17161C"> · 2.13 ms</text>
<text x="553.6 562.0 570.4 578.8 587.2" y="369.0" xml:space="preserve" fill="#555355"> · #6</text>
<text x="16.0 24.4 32.8 41.2 49.6 58.0 66.4 74.8 83.2 91.6 100.0 108.4 116.8 125.2 133.6 142.0 150.4 158.8 167.2 175.6 184.0 192.4 200.8 209.2 217.6 226.0 234.4 242.8 251.2 259.6 268.0 276.4 284.8 293.2 301.6 310.0 318.4 326.8 335.2 343.6 352.0 360.4 368.8 377.2 385.6 394.0 402.4 410.8 419.2 427.6 436.0 444.4 452.8 461.2 469.6 478.0 486.4 494.8 503.2 511.6 520.0 528.4 536.8 545.2 553.6 562.0 570.4 578.8 587.2 595.6 604.0 612.4 620.8 629.2 637.6 646.0 654.4 662.8 671.2 679.6 688.0 696.4 704.8 713.2 721.6 730.0 738.4 746.8 755.2 763.6 772.0 780.4 788.8 797.2 805.6 814.0 822.4 830.8 839.2 847.6" y="386.0" xml:space="preserve" fill="#17161C">   No API is registered under the name solar.pign.                                                  </text>
<text x="41.2 49.6 58.0 66.4 74.8 83.2" y="403.0" xml:space="preserve" fill="#8C4907">/api  </text>
<text x="108.4 116.8 125.2 133.6 142.0 150.4 158.8 167.2" y="403.0" xml:space="preserve" fill="#555355">expected</text>
<text x="175.6 184.0 192.4 200.8 209.2 217.6 226.0 234.4 242.8 251.2 259.6 268.0 276.4 284.8 293.2 301.6 310.0 318.4 326.8 335.2 343.6 352.0 360.4 368.8 377.2 385.6 394.0 402.4 410.8 419.2 427.6 436.0 444.4 452.8 461.2 469.6 478.0 486.4 494.8 503.2 511.6 520.0 528.4 536.8 545.2 553.6 562.0 570.4 578.8 587.2 595.6 604.0 612.4 620.8 629.2 637.6 646.0 654.4 662.8 671.2 679.6 688.0 696.4 704.8 713.2 721.6 730.0 738.4 746.8 755.2 763.6 772.0 780.4 788.8 797.2 805.6 814.0 822.4 830.8 839.2 847.6" y="403.0" xml:space="preserve" fill="#17161C">  solar.ping                                                                     </text>
<text x="108.4 116.8 125.2 133.6 142.0 150.4 158.8 167.2" y="420.0" xml:space="preserve" fill="#555355">received</text>
<text x="175.6 184.0 192.4 200.8 209.2 217.6 226.0 234.4 242.8 251.2 259.6 268.0 276.4 284.8 293.2 301.6 310.0 318.4 326.8 335.2 343.6 352.0 360.4 368.8 377.2 385.6 394.0 402.4 410.8 419.2 427.6 436.0 444.4 452.8 461.2 469.6 478.0 486.4 494.8 503.2 511.6 520.0 528.4 536.8 545.2 553.6 562.0 570.4 578.8 587.2 595.6 604.0 612.4 620.8 629.2 637.6 646.0 654.4 662.8 671.2 679.6 688.0 696.4 704.8 713.2 721.6 730.0 738.4 746.8 755.2 763.6 772.0 780.4 788.8 797.2 805.6 814.0 822.4 830.8 839.2 847.6" y="420.0" xml:space="preserve" fill="#17161C">  solar.pign                                                                     </text>
<text x="108.4 116.8 125.2 133.6 142.0 150.4 158.8 167.2" y="437.0" xml:space="preserve" fill="#555355">hint    </text>
<text x="175.6 184.0 192.4 200.8 209.2 217.6 226.0 234.4 242.8 251.2 259.6 268.0 276.4 284.8 293.2 301.6 310.0 318.4 326.8 335.2 343.6 352.0 360.4 368.8 377.2 385.6 394.0 402.4 410.8 419.2 427.6 436.0 444.4 452.8 461.2 469.6 478.0 486.4 494.8 503.2 511.6 520.0 528.4 536.8 545.2 553.6 562.0 570.4 578.8 587.2 595.6 604.0 612.4 620.8 629.2 637.6 646.0 654.4 662.8 671.2 679.6 688.0 696.4 704.8 713.2 721.6 730.0 738.4 746.8 755.2 763.6 772.0 780.4 788.8 797.2 805.6 814.0 822.4 830.8 839.2 847.6" y="437.0" xml:space="preserve" fill="#17161C">  Did you mean &quot;solar.ping&quot;? The edit distance is 2.                             </text>
<text x="108.4 116.8 125.2 133.6 142.0 150.4 158.8 167.2" y="454.0" xml:space="preserve" fill="#555355">docs    </text>
<text x="192.4 200.8 209.2 217.6 226.0 234.4 242.8 251.2 259.6 268.0 276.4 284.8 293.2 301.6 310.0 318.4 326.8 335.2 343.6 352.0 360.4 368.8 377.2 385.6" y="454.0" xml:space="preserve" fill="#555355">docs/ERRORS.md#not_found</text>
<text x="16.0 24.4 32.8 41.2 49.6 58.0 66.4 74.8 83.2 91.6 100.0 108.4 116.8 125.2 133.6 142.0 150.4 158.8 167.2 175.6 184.0 192.4 200.8 209.2 217.6 226.0 234.4 242.8 251.2 259.6 268.0 276.4 284.8 293.2 301.6 310.0 318.4 326.8 335.2 343.6 352.0 360.4 368.8 377.2 385.6 394.0 402.4 410.8 419.2 427.6 436.0 444.4 452.8 461.2 469.6 478.0 486.4 494.8 503.2 511.6 520.0 528.4 536.8 545.2 553.6 562.0 570.4 578.8 587.2 595.6 604.0 612.4 620.8 629.2 637.6 646.0 654.4 662.8 671.2 679.6 688.0 696.4 704.8 713.2 721.6 730.0 738.4 746.8 755.2 763.6 772.0 780.4 788.8 797.2 805.6 814.0 822.4 830.8 839.2 847.6" y="471.0" xml:space="preserve" fill="#868482">┌──────────────────────────────────────────────────────────────────────────────────────────────────┐</text>
<text x="16.0" y="488.0" xml:space="preserve" fill="#868482">│</text>
<text x="24.4 32.8 41.2" y="488.0" xml:space="preserve" fill="#8C4907"> › </text>
<text x="49.6 58.0 66.4 74.8 83.2 91.6 100.0 108.4 116.8 125.2 133.6 142.0 150.4 158.8 167.2 175.6 184.0 192.4 200.8 209.2 217.6 226.0 234.4 242.8 251.2 259.6 268.0 276.4 284.8 293.2 301.6 310.0 318.4 326.8 335.2 343.6 352.0 360.4 368.8 377.2 385.6 394.0 402.4 410.8" y="488.0" xml:space="preserve" fill="#555355">Type / for the commands, or ? for every key.</text>
<text x="847.6" y="488.0" xml:space="preserve" fill="#868482">│</text>
<text x="16.0 24.4 32.8 41.2 49.6 58.0 66.4 74.8 83.2 91.6 100.0 108.4 116.8 125.2 133.6 142.0 150.4 158.8 167.2 175.6 184.0 192.4 200.8 209.2 217.6 226.0 234.4 242.8 251.2 259.6 268.0 276.4 284.8 293.2 301.6 310.0 318.4 326.8 335.2 343.6 352.0 360.4 368.8 377.2 385.6 394.0 402.4 410.8 419.2 427.6 436.0 444.4 452.8 461.2 469.6 478.0 486.4 494.8 503.2 511.6 520.0 528.4 536.8 545.2 553.6 562.0 570.4 578.8 587.2 595.6 604.0 612.4 620.8 629.2 637.6 646.0 654.4 662.8 671.2 679.6 688.0 696.4 704.8 713.2 721.6 730.0 738.4 746.8 755.2 763.6 772.0 780.4 788.8 797.2 805.6 814.0 822.4 830.8 839.2 847.6" y="505.0" xml:space="preserve" fill="#868482">└──────────────────────────────────────────────────────────────────────────────────────────────────┘</text>
<text x="16.0 24.4 32.8" y="522.0" xml:space="preserve" fill="#868482"> ──</text>
<text x="41.2" y="522.0" xml:space="preserve" fill="#8C4907">●</text>
<text x="49.6 58.0 66.4" y="522.0" xml:space="preserve" fill="#868482">── </text>
<text x="74.8 83.2 91.6 100.0 108.4 116.8 125.2 133.6 142.0 150.4 158.8" y="522.0" xml:space="preserve" fill="#8C4907" font-weight="700">SOLAR 0.2.0</text>
<text x="167.2 175.6 184.0" y="522.0" xml:space="preserve" fill="#555355"> · </text>
<text x="192.4 200.8 209.2 217.6 226.0 234.4 242.8" y="522.0" xml:space="preserve" fill="#17161C">solar/1</text>
<text x="251.2 259.6 268.0 276.4 284.8" y="522.0" xml:space="preserve" fill="#868482"> ─── </text>
<text x="293.2 301.6 310.0 318.4 326.8 335.2 343.6 352.0 360.4 368.8" y="522.0" xml:space="preserve" fill="#555355">last call </text>
<text x="377.2 385.6 394.0 402.4 410.8 419.2 427.6" y="522.0" xml:space="preserve" fill="#17161C">2.13 ms</text>
<text x="436.0 444.4 452.8 461.2 469.6" y="522.0" xml:space="preserve" fill="#868482"> ─── </text>
<text x="478.0 486.4 494.8 503.2 511.6 520.0 528.4 536.8 545.2" y="522.0" xml:space="preserve" fill="#555355">in orbit </text>
<text x="553.6 562.0" y="522.0" xml:space="preserve" fill="#17161C">3s</text>
<text x="570.4 578.8 587.2 595.6 604.0 612.4 620.8 629.2 637.6 646.0 654.4 662.8 671.2 679.6 688.0 696.4 704.8 713.2 721.6 730.0 738.4 746.8 755.2 763.6 772.0 780.4 788.8 797.2 805.6 814.0 822.4 830.8 839.2 847.6" y="522.0" xml:space="preserve" fill="#868482"> ──────────────────────────────── </text>
</svg>
